<svg xmlns="http://www.w3.org/2000/svg" width="92" height="92" viewBox="0 0 92 92"><g fill="none" fill-rule="evenodd"><path fill="#FFD300" d="M24.158 22.069h43.507c4.505 0 8.158 3.613 8.158 8.069V83.93c0 4.456-3.653 8.069-8.158 8.069H24.158C19.653 92 16 88.387 16 83.931V30.138c0-4.456 3.653-8.069 8.158-8.069z"/><path fill="#594926" d="M22.798 34.172h46.227c.75 0 1.36.603 1.36 1.345v49.759c0 .743-.61 1.345-1.36 1.345H22.798c-.75 0-1.36-.602-1.36-1.345V35.517c0-.742.61-1.345 1.36-1.345z"/><path fill="#FFFFFF" d="M63.586 35.517v2.69h-35.35v-2.69c.007-.45.048-.9.123-1.345.663-3.88 4.058-6.72 8.035-6.724V19.38c0-2.97 2.435-5.379 5.439-5.379h8.157c3.003 0 5.439 2.409 5.439 5.38v8.068c3.975.008 7.369 2.847 8.035 6.724.075.445.116.895.122 1.345z"/><path fill="#191816" d="M48.63 22.069c0 1.485-1.217 2.69-2.719 2.69-1.501 0-2.719-1.205-2.719-2.69 0-1.485 1.218-2.69 2.72-2.69 1.501 0 2.719 1.205 2.719 2.69z"/><path fill="#191816" d="M55.195 71.271l-1.923-1.902-1.922 1.902-1.923-1.902-1.922 1.902 1.922 1.901-1.922 1.902 1.922 1.902 1.923-1.902 1.922 1.902 1.923-1.902-1.923-1.902zM40.239 51.098l-1.922-1.901-1.923 1.901-1.922-1.901-1.923 1.901L34.472 53l-1.923 1.902 1.923 1.901 1.922-1.901 1.923 1.901 1.922-1.901L38.317 53z"/><path fill="#191816" d="M32.315 71.828h-2.719v-1.345c.006-5.197 4.263-9.408 9.517-9.414H52.71c3.753-.005 6.794-3.012 6.798-6.724V53h2.72v1.345c-.007 5.196-4.264 9.407-9.518 9.414H39.113c-3.753.004-6.793 3.012-6.798 6.724v1.345z"/><path fill="#FFF" d="M35.034 75.862c0 2.228-1.826 4.035-4.078 4.035-2.253 0-4.08-1.807-4.08-4.035s1.827-4.034 4.08-4.034c2.252 0 4.078 1.806 4.078 4.034z"/><path fill="#191816" fill-rule="nonzero" d="M30.956 81.241c-3.004 0-5.439-2.408-5.439-5.379 0-2.97 2.435-5.38 5.439-5.38 3.003 0 5.438 2.41 5.438 5.38 0 2.97-2.435 5.38-5.438 5.38zm0-8.069c-1.502 0-2.72 1.205-2.72 2.69 0 1.485 1.218 2.69 2.72 2.69 1.501 0 2.719-1.205 2.719-2.69 0-1.485-1.218-2.69-2.72-2.69z"/><path fill="#FFF" d="M64.946 48.966c0 2.228-1.826 4.034-4.079 4.034-2.253 0-4.079-1.806-4.079-4.034 0-2.229 1.826-4.035 4.079-4.035 2.253 0 4.079 1.806 4.079 4.035z"/><path fill="#191816" fill-rule="nonzero" d="M60.867 54.345c-3.003 0-5.438-2.409-5.438-5.38 0-2.97 2.435-5.379 5.438-5.379 3.003 0 5.438 2.409 5.438 5.38 0 2.97-2.435 5.379-5.438 5.379zm0-8.07c-1.502 0-2.72 1.205-2.72 2.69 0 1.486 1.218 2.69 2.72 2.69 1.502 0 2.72-1.204 2.72-2.69 0-1.485-1.218-2.69-2.72-2.69z"/></g></svg>