<svg xmlns="http://www.w3.org/2000/svg" width="92" height="92" viewBox="0 0 92 92"><g fill="none" fill-rule="evenodd"><path fill="#4D4C4A" d="M82.856 66.215H9V27.377a4.457 4.457 0 0 1 4.457-4.456h64.942a4.457 4.457 0 0 1 4.457 4.456v38.838z"/><path fill="#D6C500" d="M61.208 91.683h-30.56a5.094 5.094 0 0 1 5.093-5.094h20.374a5.094 5.094 0 0 1 5.093 5.094"/><path fill="#D6C500" d="M54.841 86.589H37.014l2.547-10.187h12.734z"/><path fill="#5E5E57" d="M78.399 76.402H13.457A4.457 4.457 0 0 1 9 71.945v-5.73h73.856v5.73a4.457 4.457 0 0 1-4.457 4.457M21.097 16h50.155c2.078 0 3.762 1.627 3.762 3.635v38.769c0 2.008-1.684 3.635-3.762 3.635H21.097c-2.078 0-3.762-1.627-3.762-3.635v-38.77c0-2.007 1.684-3.634 3.762-3.634z"/><path fill="#FFC700" d="M21.097 24.777h50.155v2.508H21.097zm0 5.465h11.285v2.508H21.097zm0 5.016h8.777v2.508h-8.777zm0 5.015h7.523v2.508h-7.523zm0 5.016h7.523v2.508h-7.523zm0 5.015h7.523v2.508h-7.523zm0 5.016h11.285v2.508H21.097zm38.87-25.078h11.285v2.508H59.967zm2.508 5.016h8.777v2.508h-8.777zm1.254 5.015h7.523v2.508h-7.523zm0 5.016h7.523v2.508h-7.523zm0 5.015h7.523v2.508h-7.523zm-3.762 5.016h11.285v2.508H59.967zm-38.87-35.558h2.508v2.508h-2.508zm5.015 0h2.508v2.508h-2.508zm5.016 0h2.508v2.508h-2.508z"/><path fill="#000000" fill-rule="nonzero" d="M59.967 46.543v-5.016h-4.09a9.976 9.976 0 0 0-1.068-2.58l2.891-2.892-3.546-3.546-2.891 2.892a9.976 9.976 0 0 0-2.58-1.069v-4.09h-5.016v4.09a9.976 9.976 0 0 0-2.58 1.069l-2.892-2.892-3.546 3.546 2.891 2.892a9.976 9.976 0 0 0-1.068 2.58h-4.09v5.016h4.09a9.976 9.976 0 0 0 1.068 2.58l-2.891 2.891 3.546 3.546 2.891-2.891a9.976 9.976 0 0 0 2.58 1.068v4.09h5.016v-4.09a9.976 9.976 0 0 0 2.58-1.068l2.892 2.891 3.546-3.546-2.891-2.891a9.976 9.976 0 0 0 1.068-2.58h4.09zM46.175 49.05a5.016 5.016 0 1 1 0-10.031 5.016 5.016 0 0 1 0 10.031z"/></g></svg>