<svg xmlns="http://www.w3.org/2000/svg" width="92" height="92" viewBox="0 0 92 92"><g fill="#FCF900" fill-rule="evenodd"><path d="M79.416 54.714H66.004a3.348 3.348 0 0 0-3.354 3.342 3.348 3.348 0 0 0 3.354 3.342h13.412a3.348 3.348 0 0 0 3.353-3.342 3.348 3.348 0 0 0-3.353-3.342z"/><path fill-opacity=".2" d="M25.766 54.714H12.353A3.348 3.348 0 0 0 9 58.056a3.348 3.348 0 0 0 3.353 3.342h13.413a3.348 3.348 0 0 0 3.353-3.342 3.348 3.348 0 0 0-3.353-3.342z"/><path fill-opacity=".8" d="M67.224 32.06l-9.484 9.453a3.334 3.334 0 0 0 0 4.727 3.345 3.345 0 0 0 2.37.979c.859 0 1.717-.326 2.372-.98l9.484-9.453a3.334 3.334 0 0 0 0-4.726 3.36 3.36 0 0 0-4.742 0z"/><path fill-opacity=".1" d="M45.885 78.11a3.348 3.348 0 0 0-3.354 3.341v6.685a3.348 3.348 0 0 0 3.354 3.342 3.348 3.348 0 0 0 3.353-3.342V81.45a3.348 3.348 0 0 0-3.353-3.342zm-16.598-8.238l-9.484 9.454a3.334 3.334 0 0 0 0 4.726 3.349 3.349 0 0 0 2.371.979c.858 0 1.717-.327 2.37-.979l9.485-9.453a3.334 3.334 0 0 0 0-4.727 3.36 3.36 0 0 0-4.742 0z"/><path fill-opacity=".6" d="M45.885 21.292a3.348 3.348 0 0 0-3.353 3.342v13.37a3.348 3.348 0 0 0 3.353 3.341 3.348 3.348 0 0 0 3.353-3.342V24.634a3.348 3.348 0 0 0-3.353-3.342z"/><path fill-opacity=".4" d="M24.546 32.06a3.36 3.36 0 0 0-4.742 0 3.334 3.334 0 0 0 0 4.726l9.484 9.454a3.345 3.345 0 0 0 2.37.979c.859 0 1.717-.326 2.372-.98a3.334 3.334 0 0 0 0-4.726l-9.484-9.453z"/></g></svg>