<svg xmlns="http://www.w3.org/2000/svg" width="92" height="92" viewBox="0 0 92 92"><g fill="none" fill-rule="evenodd" transform="translate(9 22)"><path fill="#0000" d="M58.98 32.907a16.189 16.189 0 0 0-10.943.726 16.137 16.137 0 0 0-5.338 3.805 15.983 15.983 0 0 0-4.283 10.695 15.932 15.932 0 0 0 2.331 8.534 27.696 27.696 0 0 1 1.775 3.41h-.001a24.276 24.276 0 0 1-3.592.919c-1.35.24-2.739.369-4.156.38h-.185a24.657 24.657 0 0 1-19.352-9.565 24.493 24.493 0 0 1-5.145-15.766 24.486 24.486 0 0 1 6.036-15.454 24.755 24.755 0 0 1 9.058-6.56 24.48 24.48 0 0 1 5.18-1.532l.057-.01a24.691 24.691 0 0 1 4.166-.382h.185a24.646 24.646 0 0 1 19.348 9.565 24.55 24.55 0 0 1 4.552 9.63c.12.527.222 1.063.307 1.605z"/><path fill="#FFB100" d="M25.441 11.454a11.64 11.64 0 0 1-.256 2.577 24.754 24.754 0 0 0-13.099 12.97H7.683V23.1H5.608c-1.21 0-2.18-1-2.14-2.206l.154-3.493-3.2-1.005a.604.604 0 0 1-.338-.883l.141-.24c1.147-1.942 1.953-4.06 2.46-6.255A11.522 11.522 0 0 1 14.068.104c6.09.077 11.056 4.893 11.356 10.915.01.144.014.289.016.435z"/><path fill="#FFFFFF" fill-rule="nonzero" d="M54.122 21.672c-.285-.37-.582-.73-.889-1.081-1.668 1.163-3.637 2.152-5.859 2.948-1.235-3.44-2.947-6.347-4.975-8.442-1.084-1.12-2.247-1.994-3.461-2.609a24.852 24.852 0 0 0-4.165-.381h-.185c-1.42.01-2.811.14-4.166.381-1.214.615-2.377 1.49-3.46 2.609-2.029 2.095-3.74 5.003-4.976 8.442-2.222-.794-4.192-1.785-5.86-2.948-.305.351-.601.712-.888 1.081l.035.024c1.787 1.254 3.896 2.316 6.271 3.164-1.07 3.432-1.663 7.27-1.726 11.185h-9.727a23.087 23.087 0 0 0 0 1.393h9.727c.063 3.912.656 7.752 1.726 11.184-2.372.846-4.48 1.907-6.27 3.162l-.038.026c.287.368.582.728.889 1.08 1.67-1.163 3.64-2.15 5.86-2.948 1.236 3.44 2.948 6.349 4.976 8.442 1.084 1.12 2.248 1.993 3.461 2.61 1.355.242 2.746.37 4.166.381h.185c1.417-.01 2.807-.14 4.156-.38 1.049-.529 2.06-1.253 3.014-2.16l.155-.152.498-.487-.978-.995-.354.347-.145.14c-1.737 1.702-3.676 2.707-5.65 2.938V47.852c.992.021 1.967.073 2.912.16l.038.004.656.06.13-1.387-.697-.064h-.002c-.984-.09-2-.145-3.036-.166v-9.021h8.614v-1.393H35.47v-9.022c3.855-.078 7.633-.667 11.02-1.717.786 2.527 1.303 5.247 1.53 8.104l.017.223.037.472 1.393-.11-.056-.695-.016-.19c-.242-2.902-.776-5.67-1.583-8.248 2.377-.85 4.487-1.91 6.274-3.166l.036-.024zM34.074 60.646c-4.353-.406-8.404-4.597-10.765-11.148 1.607-.5 3.309-.89 5.068-1.165a40.989 40.989 0 0 1 5.697-.482v12.795zm0-14.188c-2.076.036-4.018.2-5.914.5a37.015 37.015 0 0 0-5.293 1.218c-1.023-3.29-1.59-6.975-1.653-10.738h12.86v9.02zm0-10.413h-12.86c.063-3.765.63-7.448 1.653-10.739 3.44 1.067 7.287 1.656 11.207 1.719v9.02zm0-10.413c-3.77-.061-7.463-.627-10.765-1.648 2.36-6.552 6.41-10.743 10.765-11.15v12.798zm1.396-.002V12.856c4.283.505 8.255 4.668 10.581 11.128-3.248 1.005-6.874 1.57-10.581 1.646z"/><path fill="#FFE5EB" d="M58.98 32.907c5.576 1.607 9.908 6.14 11.215 11.823.706 3.067 1.833 6.023 3.433 8.735l.2.336a.843.843 0 0 1-.475 1.232l-4.468 1.404.216 4.876a2.989 2.989 0 0 1-2.99 3.082h-2.897v5.446H44.742l-.026-.526a26.375 26.375 0 0 0-2.194-9.237 28.255 28.255 0 0 0-1.775-3.411 15.932 15.932 0 0 1-2.331-8.534c.108-8.691 7.171-15.742 15.88-15.853 1.627-.021 3.2.2 4.684.627z"/><path fill="#F2F2F2" d="M57.406 27.317a26.215 26.215 0 0 1-3.199.194c-10.515 0-19.596-6.135-23.842-15.012l.057-.01a24.691 24.691 0 0 1 4.166-.382h.185a24.646 24.646 0 0 1 19.348 9.565 24.55 24.55 0 0 1 3.285 5.645z" opacity=".23"/><ellipse cx="18.571" cy="43.549" fill="#F2F2F2" opacity=".23" rx="6.199" ry="4.449" transform="rotate(-109.056 18.57 43.549)"/></g></svg>