<svg width="92" height="92" viewBox="0 0 92 92" version="1.1" xmlns="http://www.w3.org/2000/svg">
    <g id="Icon/92x92/Gadget/1" stroke="none" stroke-width="1" fill="none" fill-rule="evenodd">
        <g id="macbook" transform="translate(-320 -426)">
            <!-- Желтая часть -->
            <path d="M411.84 512.08v1.458c0 2.407-1.937 4.376-4.305 4.376h-83.23c-2.368 0-4.305-1.969-4.305-4.376v-1.458h91.84z" id="Path" fill="#FFBC5E"/>
            <!-- Черная часть -->
            <path d="M359.463 510.62h12.915c1.22 0 2.152.95 2.152 2.189 0 1.24-.933 2.188-2.152 2.188h-12.915c-1.22 0-2.153-.948-2.153-2.188 0-1.167.933-2.188 2.153-2.188z" id="Path" fill="#303000"/>
            <!-- Рамка -->
            <path d="M331.48 458.108h68.88c1.579 0 2.87 1.313 2.87 2.918v51.054h-74.62v-51.055c0-1.604 1.292-2.917 2.87-2.917z" id="Path" fill="#FFDB6E"/>
            <!-- Внутренняя часть -->
            <path id="Path" fill="#343535" d="M333.53 462.09h66.01v45.22h-66.01z"/>
            <!-- Круги -->
            <circle class="yellow-color" cx="50" cy="50" r="40"/>
            <rect class="black-color" x="30" y="30" width="40" height="40"/>
            <!-- Рамка верхнего экрана -->
            <path d="M348.7 501.5h34.44c2.368 0 4.305 1.97 4.305 4.376v1.459h-43.05v-1.459c0-2.407 1.937-4.376 4.305-4.376z" id="Path" fill="#1A1A02"/>
            <!-- Кнопки верхнего экрана -->
            <path d="M353.005 498.951c1.579 0 2.87 1.313 2.87 2.918 0 1.604-1.291 2.917-2.87 2.917-1.579 0-2.87-1.313-2.87-2.917 0-1.605 1.292-2.918 2.87-2.918zm8.61 0c1.579 0 2.87 1.313 2.87 2.918 0 1.604-1.291 2.917-2.87 2.917-1.578 0-2.87-1.313-2.87-2.917 0-1.605 1.292-2.918 2.87-2.918z" id="Path" fill="#D1D19B"/>
            <path d="M370.225 498.951c1.579 0 2.87 1.313 2.87 2.918 0 1.604-1.291 2.917-2.87 2.917-1.578 0-2.87-1.313-2.87-2.917 0-1.605 1.292-2.918 2.87-2.918zm8.61 0c1.579 0 2.87 1.313 2.87 2.918 0 1.604-1.291 2.917-2.87 2.917-1.578 0-2.87-1.313-2.87-2.917 0-1.605 1.292-2.918 2.87-2.918z" id="Shape" fill="#D1D19B" fill-rule="nonzero"/>
        </g>
    </g>
</svg>
